<svg width="512" height="512" viewBox="0 0 512 512" fill="none" xmlns="http://www.w3.org/2000/svg">
<rect width="512" height="512" fill="white"/>
<path d="M288.112 476C249.969 476 215.45 467.597 184.554 450.792C154.039 433.986 129.818 409.351 111.891 376.885C93.9636 344.42 85 304.698 85 257.719C85 222.58 90.1493 191.451 100.448 164.333C111.128 136.833 125.813 113.535 144.503 94.4375C163.194 75.3403 184.744 60.8264 209.156 50.8958C233.568 40.9653 259.886 36 288.112 36C318.627 36 344.564 41.7292 365.924 53.1875C387.666 64.2639 405.403 76.6771 419.134 90.4271L373.935 144.281C363.254 134.351 351.43 125.948 338.461 119.073C325.874 112.198 310.045 108.76 290.973 108.76C267.324 108.76 246.536 114.681 228.609 126.521C210.682 137.979 196.76 154.594 186.842 176.365C176.925 198.135 171.966 224.299 171.966 254.854C171.966 285.792 176.544 312.337 185.698 334.49C195.234 356.26 209.347 373.066 228.037 384.906C246.727 396.747 269.804 402.667 297.267 402.667C307.565 402.667 317.483 401.33 327.018 398.656C336.554 395.601 344.183 391.59 349.904 386.625V302.979H274.953V233.656H426V425.01C411.506 439.142 392.243 451.174 368.213 461.104C344.183 471.035 317.483 476 288.112 476Z" fill="#004691"/>
</svg>
