<svg width="98" height="23" viewBox="0 0 98 23" fill="none" xmlns="http://www.w3.org/2000/svg">
<path d="M10.452 22.892C8.58533 22.892 6.896 22.4813 5.384 21.66C3.89067 20.8387 2.70533 19.6347 1.828 18.048C0.950667 16.4613 0.512 14.52 0.512 12.224C0.512 10.5067 0.764 8.98533 1.268 7.66C1.79067 6.316 2.50933 5.17733 3.424 4.244C4.33867 3.31067 5.39333 2.60133 6.588 2.116C7.78267 1.63067 9.07067 1.388 10.452 1.388C11.9453 1.388 13.2147 1.668 14.26 2.228C15.324 2.76933 16.192 3.376 16.864 4.048L14.652 6.68C14.1293 6.19467 13.5507 5.784 12.916 5.448C12.3 5.112 11.5253 4.944 10.592 4.944C9.43467 4.944 8.41733 5.23333 7.54 5.812C6.66267 6.372 5.98133 7.184 5.496 8.248C5.01067 9.312 4.768 10.5907 4.768 12.084C4.768 13.596 4.992 14.8933 5.44 15.976C5.90667 17.04 6.59733 17.8613 7.512 18.44C8.42667 19.0187 9.556 19.308 10.9 19.308C11.404 19.308 11.8893 19.2427 12.356 19.112C12.8227 18.9627 13.196 18.7667 13.476 18.524V14.436H9.808V11.048H17.2V20.4C16.4907 21.0907 15.548 21.6787 14.372 22.164C13.196 22.6493 11.8893 22.892 10.452 22.892ZM26.7143 22.892C25.2583 22.892 23.9423 22.5653 22.7663 21.912C21.5903 21.2587 20.6476 20.316 19.9383 19.084C19.2476 17.852 18.9023 16.3773 18.9023 14.66C18.9023 13.3907 19.0983 12.252 19.4903 11.244C19.901 10.236 20.4516 9.37733 21.1423 8.668C21.8516 7.94 22.6356 7.38933 23.4943 7.016C24.3716 6.624 25.277 6.428 26.2103 6.428C27.6476 6.428 28.8516 6.75467 29.8223 7.408C30.793 8.04267 31.521 8.92933 32.0063 10.068C32.5103 11.188 32.7623 12.476 32.7623 13.932C32.7623 14.3053 32.7436 14.6693 32.7063 15.024C32.669 15.36 32.6223 15.6307 32.5663 15.836H22.9063C23.0183 16.676 23.2703 17.3853 23.6623 17.964C24.0543 18.5427 24.5583 18.9813 25.1743 19.28C25.7903 19.56 26.4903 19.7 27.2743 19.7C27.909 19.7 28.5063 19.616 29.0663 19.448C29.6263 19.2613 30.1956 18.9907 30.7743 18.636L32.1743 21.156C31.409 21.6787 30.5503 22.0987 29.5983 22.416C28.6463 22.7333 27.685 22.892 26.7143 22.892ZM22.8223 13.064H29.2343C29.2343 12.0187 28.9916 11.188 28.5063 10.572C28.0396 9.93733 27.293 9.62 26.2663 9.62C25.725 9.62 25.2116 9.75067 24.7263 10.012C24.241 10.2547 23.8303 10.6373 23.4943 11.16C23.1583 11.664 22.9343 12.2987 22.8223 13.064ZM34.7518 22.5V6.82H38.1118L38.4198 8.892H38.5038C39.1945 8.22 39.9505 7.64133 40.7718 7.156C41.5932 6.67067 42.5358 6.428 43.5998 6.428C45.2985 6.428 46.5305 6.988 47.2958 8.108C48.0612 9.20933 48.4438 10.7493 48.4438 12.728V22.5H44.3278V13.232C44.3278 12.0187 44.1505 11.1693 43.7958 10.684C43.4598 10.1987 42.8998 9.956 42.1158 9.956C41.4812 9.956 40.9212 10.1053 40.4358 10.404C39.9692 10.7027 39.4465 11.1413 38.8678 11.72V22.5H34.7518ZM58.1213 22.892C56.6653 22.892 55.3493 22.5653 54.1733 21.912C52.9973 21.2587 52.0547 20.316 51.3453 19.084C50.6547 17.852 50.3093 16.3773 50.3093 14.66C50.3093 13.3907 50.5053 12.252 50.8973 11.244C51.308 10.236 51.8587 9.37733 52.5493 8.668C53.2587 7.94 54.0427 7.38933 54.9013 7.016C55.7787 6.624 56.684 6.428 57.6173 6.428C59.0547 6.428 60.2587 6.75467 61.2293 7.408C62.2 8.04267 62.928 8.92933 63.4133 10.068C63.9173 11.188 64.1693 12.476 64.1693 13.932C64.1693 14.3053 64.1507 14.6693 64.1133 15.024C64.076 15.36 64.0293 15.6307 63.9733 15.836H54.3133C54.4253 16.676 54.6773 17.3853 55.0693 17.964C55.4613 18.5427 55.9653 18.9813 56.5813 19.28C57.1973 19.56 57.8973 19.7 58.6813 19.7C59.316 19.7 59.9133 19.616 60.4733 19.448C61.0333 19.2613 61.6027 18.9907 62.1813 18.636L63.5813 21.156C62.816 21.6787 61.9573 22.0987 61.0053 22.416C60.0533 22.7333 59.092 22.892 58.1213 22.892ZM54.2293 13.064H60.6413C60.6413 12.0187 60.3987 11.188 59.9133 10.572C59.4467 9.93733 58.7 9.62 57.6733 9.62C57.132 9.62 56.6187 9.75067 56.1333 10.012C55.648 10.2547 55.2373 10.6373 54.9013 11.16C54.5653 11.664 54.3413 12.2987 54.2293 13.064ZM66.1589 22.5V6.82H69.5189L69.8269 9.592H69.9109C70.4895 8.56533 71.1709 7.78133 71.9549 7.24C72.7389 6.69867 73.5415 6.428 74.3629 6.428C74.8109 6.428 75.1655 6.46533 75.4269 6.54C75.7069 6.596 75.9589 6.67067 76.1829 6.764L75.5109 10.32C75.2122 10.2453 74.9415 10.1893 74.6989 10.152C74.4749 10.096 74.1855 10.068 73.8309 10.068C73.2335 10.068 72.5989 10.3013 71.9269 10.768C71.2735 11.2347 70.7229 12.028 70.2749 13.148V22.5H66.1589ZM81.2058 22.892C80.2911 22.892 79.4791 22.696 78.7698 22.304C78.0791 21.8933 77.5378 21.3333 77.1458 20.624C76.7725 19.9147 76.5858 19.112 76.5858 18.216C76.5858 16.5547 77.3045 15.2667 78.7418 14.352C80.1791 13.4187 82.4658 12.784 85.6018 12.448C85.5831 11.9253 85.4898 11.468 85.3218 11.076C85.1538 10.6653 84.8738 10.3387 84.4818 10.096C84.1085 9.85333 83.5951 9.732 82.9418 9.732C82.2138 9.732 81.4951 9.872 80.7858 10.152C80.0765 10.432 79.3578 10.796 78.6298 11.244L77.1738 8.5C77.7898 8.108 78.4431 7.76267 79.1338 7.464C79.8245 7.16533 80.5525 6.92267 81.3178 6.736C82.0831 6.53067 82.8765 6.428 83.6978 6.428C85.0231 6.428 86.1338 6.68933 87.0298 7.212C87.9258 7.73467 88.5978 8.50933 89.0458 9.536C89.4938 10.5627 89.7178 11.832 89.7178 13.344V22.5H86.3578L86.0778 20.82H85.9378C85.2658 21.4173 84.5378 21.912 83.7538 22.304C82.9698 22.696 82.1205 22.892 81.2058 22.892ZM82.5778 19.672C83.1565 19.672 83.6791 19.5413 84.1458 19.28C84.6311 19 85.1165 18.6173 85.6018 18.132V14.996C84.3325 15.1453 83.3245 15.36 82.5778 15.64C81.8311 15.92 81.2991 16.256 80.9818 16.648C80.6645 17.0213 80.5058 17.4413 80.5058 17.908C80.5058 18.524 80.6925 18.972 81.0658 19.252C81.4578 19.532 81.9618 19.672 82.5778 19.672ZM95.8448 22.892C94.8741 22.892 94.1088 22.696 93.5488 22.304C92.9888 21.8933 92.5781 21.3333 92.3168 20.624C92.0741 19.896 91.9528 19.056 91.9528 18.104V0.155999H96.0688V18.272C96.0688 18.7387 96.1528 19.0653 96.3208 19.252C96.5075 19.4387 96.6941 19.532 96.8808 19.532C96.9741 19.532 97.0581 19.532 97.1328 19.532C97.2075 19.5133 97.3101 19.4947 97.4408 19.476L97.9448 22.528C97.7021 22.6213 97.4035 22.7053 97.0488 22.78C96.7128 22.8547 96.3115 22.892 95.8448 22.892Z" fill="#004691"/>
</svg>
