<svg width="647" height="148" viewBox="0 0 647 148" fill="none" xmlns="http://www.w3.org/2000/svg">
<path opacity="0.9" fill-rule="evenodd" clip-rule="evenodd" d="M631.517 150.454C624.611 150.454 619.123 149.036 615.054 146.2C610.984 143.363 608.086 139.355 606.359 134.176C604.633 128.997 603.77 123.016 603.77 116.233V0.25H633.737V117.343C633.737 120.672 634.353 122.954 635.586 124.187C636.82 125.42 638.053 126.037 639.286 126.037H640.951C641.444 125.914 642.122 125.79 642.986 125.667L646.5 147.865C644.897 148.604 642.862 149.221 640.396 149.714C637.93 150.208 634.97 150.454 631.517 150.454ZM533.91 150.454C527.621 150.454 522.133 149.098 517.447 146.385C512.884 143.548 509.308 139.787 506.718 135.101C504.252 130.291 503.019 124.927 503.019 119.008C503.019 107.909 507.705 99.338 517.077 93.2953C526.449 87.1292 541.433 82.8747 562.027 80.5316C561.904 77.4486 561.226 74.7355 559.993 72.3924C558.883 70.0494 557.095 68.2612 554.628 67.028C552.285 65.6715 549.202 64.9932 545.379 64.9932C540.816 64.9932 536.253 65.8565 531.691 67.583C527.128 69.3094 522.318 71.5909 517.262 74.4272L506.718 54.6343C511.158 51.9213 515.721 49.5782 520.407 47.605C525.093 45.5086 529.964 43.9054 535.02 42.7955C540.2 41.5623 545.502 40.9457 550.929 40.9457C559.931 40.9457 567.453 42.6722 573.496 46.1252C579.539 49.5782 584.163 54.7576 587.37 61.6636C590.576 68.5695 592.179 77.2636 592.179 87.7458V147.865H567.577L565.542 137.136H564.617C560.301 140.959 555.553 144.165 550.374 146.755C545.317 149.221 539.83 150.454 533.91 150.454ZM544.084 126.962C547.661 126.962 550.867 126.16 553.703 124.557C556.54 122.954 559.314 120.734 562.027 117.898V99.0297C554.505 99.8929 548.462 101.188 543.899 102.914C539.46 104.641 536.315 106.676 534.465 109.019C532.615 111.362 531.691 113.951 531.691 116.788C531.691 120.364 532.8 122.954 535.02 124.557C537.363 126.16 540.385 126.962 544.084 126.962ZM433.373 43.5355V147.865H463.34V87.0059C466.177 79.73 469.753 74.6122 474.069 71.6525C478.385 68.6928 482.517 67.213 486.463 67.213C488.683 67.213 490.594 67.398 492.197 67.7679C493.924 68.0146 495.773 68.3845 497.747 68.8778L502.741 43.1655C501.261 42.4256 499.535 41.8706 497.562 41.5007C495.712 41.1307 493.307 40.9457 490.347 40.9457C484.921 40.9457 479.557 42.7339 474.254 46.3102C468.951 49.7631 464.388 54.9426 460.565 61.8485H460.011L457.791 43.5355H433.373ZM382.154 150.454C372.165 150.454 363.224 148.296 355.332 143.98C347.439 139.54 341.15 133.251 336.464 125.112C331.778 116.973 329.435 107.169 329.435 95.7C329.435 87.1909 330.791 79.6067 333.504 72.9474C336.217 66.1648 339.917 60.3687 344.603 55.5592C349.289 50.7497 354.53 47.1118 360.326 44.6454C366.246 42.1789 372.288 40.9457 378.454 40.9457C388.32 40.9457 396.521 43.1038 403.057 47.4201C409.593 51.7363 414.464 57.6557 417.67 65.1782C421 72.7008 422.665 81.2715 422.665 90.8905C422.665 93.7269 422.542 96.3783 422.295 98.8447C422.048 101.188 421.74 103.038 421.37 104.394H358.477C359.34 109.574 361.066 113.89 363.656 117.343C366.246 120.672 369.39 123.2 373.09 124.927C376.913 126.53 381.229 127.332 386.039 127.332C390.108 127.332 393.931 126.777 397.507 125.667C401.207 124.434 404.968 122.707 408.791 120.487L418.78 138.801C413.601 142.377 407.743 145.213 401.207 147.31C394.794 149.406 388.443 150.454 382.154 150.454ZM358.107 84.4162H397.137C397.137 78.3735 395.719 73.4407 392.883 69.6178C390.047 65.7948 385.422 63.8833 379.009 63.8833C375.803 63.8833 372.72 64.6849 369.76 66.2881C366.801 67.7679 364.273 69.9877 362.176 72.9474C360.203 75.9071 358.846 79.73 358.107 84.4162ZM226.694 43.5355V147.865H256.661V77.017C260.237 73.6873 263.444 71.1592 266.28 69.4328C269.116 67.583 272.508 66.6581 276.454 66.6581C281.14 66.6581 284.531 68.0762 286.628 70.9126C288.848 73.749 289.957 79.0518 289.957 86.8209V147.865H319.924V82.9364C319.924 69.8644 317.335 59.6288 312.155 52.2296C307.099 44.707 298.898 40.9457 287.553 40.9457C280.4 40.9457 274.111 42.4872 268.685 45.5703C263.259 48.6533 258.326 52.4145 253.886 56.8541H253.331L251.112 43.5355H226.694ZM175.474 150.454C165.485 150.454 156.544 148.296 148.652 143.98C140.759 139.54 134.47 133.251 129.784 125.112C125.098 116.973 122.755 107.169 122.755 95.7C122.755 87.1909 124.111 79.6067 126.824 72.9474C129.537 66.1648 133.237 60.3687 137.923 55.5592C142.609 50.7497 147.85 47.1118 153.646 44.6454C159.566 42.1789 165.609 40.9457 171.775 40.9457C181.64 40.9457 189.841 43.1038 196.377 47.4201C202.913 51.7363 207.784 57.6557 210.99 65.1782C214.32 72.7008 215.985 81.2715 215.985 90.8905C215.985 93.7269 215.862 96.3783 215.615 98.8447C215.368 101.188 215.06 103.038 214.69 104.394H151.797C152.66 109.574 154.386 113.89 156.976 117.343C159.566 120.672 162.71 123.2 166.41 124.927C170.233 126.53 174.549 127.332 179.359 127.332C183.428 127.332 187.251 126.777 190.828 125.667C194.527 124.434 198.288 122.707 202.111 120.487L212.1 138.801C206.921 142.377 201.063 145.213 194.527 147.31C188.114 149.406 181.763 150.454 175.474 150.454ZM151.427 84.4162H190.458C190.458 78.3735 189.039 73.4407 186.203 69.6178C183.367 65.7948 178.742 63.8833 172.329 63.8833C169.123 63.8833 166.04 64.6849 163.08 66.2881C160.121 67.7679 157.593 69.9877 155.496 72.9474C153.523 75.9071 152.167 79.73 151.427 84.4162ZM32.9266 142.5C43.0388 147.803 54.3843 150.454 66.963 150.454C76.4587 150.454 85.1528 148.851 93.0453 145.645C101.061 142.315 107.412 138.369 112.098 133.806V70.7277H62.1535V95.5151H85.2761V120.118C83.5496 121.474 81.3298 122.522 78.6168 123.262C75.9037 124.002 73.0674 124.372 70.1077 124.372C61.4752 124.372 54.1993 122.584 48.28 119.008C42.4839 115.431 38.106 110.252 35.1463 103.469C32.31 96.5633 30.8918 88.3625 30.8918 78.8669C30.8918 69.4945 32.4333 61.4787 35.5163 54.8194C38.7226 48.0367 43.1005 42.8573 48.6499 39.281C54.1993 35.7047 60.5503 33.9165 67.7029 33.9165C73.7456 33.9165 78.7401 34.9648 82.6864 37.0612C86.7559 39.1577 90.5172 41.8091 93.9702 45.0154L109.879 25.7774C105.316 21.2145 99.4579 17.145 92.3054 13.5687C85.2761 9.86907 76.767 8.01926 66.778 8.01926C57.529 8.01926 48.8966 9.62242 40.8807 12.8288C32.8649 16.0351 25.774 20.7213 19.608 26.8873C13.5652 33.0533 8.75575 40.5759 5.17946 49.4549C1.72649 58.334 0 68.4463 0 79.7918C0 95.2068 2.95969 108.155 8.87907 118.638C14.9218 129.12 22.9376 137.074 32.9266 142.5Z" fill="white"/>
</svg>
